<svg xmlns="http://www.w3.org/2000/svg" width="24" height="24" fill="none" style="border-radius:50%">
  <path fill="#B22234" d="M43 1H-5v26h48V1Z"/>
  <path fill="#fff" fill-rule="evenodd" d="M43 5.818H-5V4h48v1.818ZM-5 7.636h48v1.819H-5V7.636Zm48 5.455H-5v-1.818h48v1.818Zm-48 1.818h48v1.818H-5V14.91Zm48 5.455H-5v-1.819h48v1.819Zm-48 1.818h48V24H-5v-1.818Z" clip-rule="evenodd"/>
  <path fill="#3C3B6E" d="M14 1H-5v14h19V1Z"/>
  <path fill="#fff" d="m1.62 3.422.486 1.35-1.274-.834h1.575l-1.274.835.486-1.35Zm0 2.701.486 1.35L.832 6.64h1.575l-1.274.834.486-1.35Zm0 2.701.486 1.35-1.274-.835h1.575l-1.274.835.486-1.35Zm0 2.7.486 1.35-1.274-.834h1.575l-1.274.835.486-1.35Zm1.687-9.452.418 1.35-1.093-.834h1.35l-1.092.834.417-1.35Zm0 2.701.418 1.35-1.093-.835h1.35l-1.092.835.417-1.35Zm0 2.7.418 1.35-1.093-.834h1.35l-1.092.835.417-1.35Zm0 2.701.418 1.35-1.093-.834h1.35l-1.092.834.417-1.35Zm0 2.701.418 1.35-1.093-.835h1.35l-1.092.835.417-1.35Zm1.576-9.453.417 1.35-1.092-.834h1.35l-1.093.835.418-1.35Zm0 2.701.417 1.35-1.092-.834h1.35l-1.093.834.418-1.35Zm0 2.701.417 1.35-1.092-.835h1.35l-1.093.835.418-1.35Zm0 2.7.417 1.35-1.092-.834h1.35l-1.093.835.418-1.35Zm1.575-9.452.417 1.35-1.092-.834h1.35l-1.092.834.417-1.35Zm0 2.701.417 1.35-1.092-.835h1.35l-1.092.835.417-1.35Zm0 2.7.417 1.35-1.092-.834h1.35l-1.092.835.417-1.35Zm0 2.701.417 1.35-1.092-.834h1.35l-1.092.834.417-1.35Zm0 2.701.417 1.35-1.092-.835h1.35l-1.092.835.417-1.35Zm1.576-9.453.417 1.35-1.093-.834h1.35l-1.092.835.418-1.35Zm0 2.701.417 1.35-1.093-.834h1.35l-1.092.834.418-1.35Zm0 2.701.417 1.35-1.093-.835h1.35l-1.092.835.418-1.35Zm0 2.7.417 1.35-1.093-.834h1.35l-1.092.835.418-1.35Zm1.688-9.452.486 1.35-1.274-.834h1.575l-1.274.834.487-1.35Zm0 2.701.486 1.35-1.274-.835h1.575l-1.274.835.487-1.35Zm0 2.7.486 1.35-1.274-.834h1.575l-1.274.835.487-1.35Zm0 2.701.486 1.35-1.274-.834h1.575l-1.274.834.487-1.35Zm0 2.701.486 1.35-1.274-.835h1.575l-1.274.835.487-1.35Zm1.462-9.453.418 1.35-1.093-.834h1.35l-1.092.835.418-1.35Zm0 2.701.418 1.35-1.093-.834h1.35l-1.092.834.418-1.35Zm0 2.701.418 1.35-1.093-.835h1.35l-1.092.835.418-1.35Zm0 2.7.418 1.35-1.093-.834h1.35l-1.092.835.418-1.35Zm1.688-9.452.487 1.35-1.274-.834h1.575l-1.275.834.487-1.35Zm0 2.701.487 1.35-1.274-.835h1.575l-1.275.835.487-1.35Zm0 2.7.487 1.35-1.274-.834h1.575l-1.275.835.487-1.35Zm0 2.701.487 1.35-1.274-.834h1.575l-1.275.834.487-1.35Zm0 2.701.487 1.35-1.274-.835h1.575l-1.275.835.487-1.35Z"/>
</svg>
